<svg width="16" height="16" viewBox="0 0 16 16" fill="none" xmlns="http://www.w3.org/2000/svg">
<path d="M7.99967 4.99996C9.19629 4.99996 10.1663 4.02991 10.1663 2.83329C10.1663 1.63668 9.19629 0.666626 7.99967 0.666626C6.80306 0.666626 5.83301 1.63668 5.83301 2.83329C5.83301 4.02991 6.80306 4.99996 7.99967 4.99996Z" fill="#201F1E"/>
<path d="M3.99967 3.33329H3.66634V2.99996C3.66634 2.91155 3.63122 2.82677 3.56871 2.76426C3.5062 2.70174 3.42141 2.66663 3.33301 2.66663C3.2446 2.66663 3.15982 2.70174 3.09731 2.76426C3.03479 2.82677 2.99967 2.91155 2.99967 2.99996V3.33329H2.66634C2.57794 3.33329 2.49315 3.36841 2.43064 3.43092C2.36813 3.49344 2.33301 3.57822 2.33301 3.66663C2.33301 3.75503 2.36813 3.83982 2.43064 3.90233C2.49315 3.96484 2.57794 3.99996 2.66634 3.99996H2.99967V4.33329C2.99967 4.4217 3.03479 4.50648 3.09731 4.56899C3.15982 4.63151 3.2446 4.66663 3.33301 4.66663C3.42141 4.66663 3.5062 4.63151 3.56871 4.56899C3.63122 4.50648 3.66634 4.4217 3.66634 4.33329V3.99996H3.99967C4.08808 3.99996 4.17286 3.96484 4.23538 3.90233C4.29789 3.83982 4.33301 3.75503 4.33301 3.66663C4.33301 3.57822 4.29789 3.49344 4.23538 3.43092C4.17286 3.36841 4.08808 3.33329 3.99967 3.33329Z" fill="#201F1E"/>
<path d="M14.3327 6.00004H13.9993V5.66671C13.9993 5.5783 13.9642 5.49352 13.9017 5.431C13.8392 5.36849 13.7544 5.33337 13.666 5.33337C13.5776 5.33337 13.4928 5.36849 13.4303 5.431C13.3678 5.49352 13.3327 5.5783 13.3327 5.66671V6.00004H12.9993C12.9109 6.00004 12.8262 6.03516 12.7636 6.09767C12.7011 6.16018 12.666 6.24497 12.666 6.33337C12.666 6.42178 12.7011 6.50656 12.7636 6.56908C12.8262 6.63159 12.9109 6.66671 12.9993 6.66671H13.3327V7.00004C13.3327 7.08845 13.3678 7.17323 13.4303 7.23574C13.4928 7.29826 13.5776 7.33337 13.666 7.33337C13.7544 7.33337 13.8392 7.29826 13.9017 7.23574C13.9642 7.17323 13.9993 7.08845 13.9993 7.00004V6.66671H14.3327C14.4211 6.66671 14.5059 6.63159 14.5684 6.56908C14.6309 6.50656 14.666 6.42178 14.666 6.33337C14.666 6.24497 14.6309 6.16018 14.5684 6.09767C14.5059 6.03516 14.4211 6.00004 14.3327 6.00004Z" fill="#201F1E"/>
<path d="M12.6663 3.66667C12.8504 3.66667 12.9997 3.51743 12.9997 3.33333C12.9997 3.14924 12.8504 3 12.6663 3C12.4822 3 12.333 3.14924 12.333 3.33333C12.333 3.51743 12.4822 3.66667 12.6663 3.66667Z" fill="#201F1E"/>
<path d="M1.66634 6.66667C1.85044 6.66667 1.99967 6.51743 1.99967 6.33333C1.99967 6.14924 1.85044 6 1.66634 6C1.48225 6 1.33301 6.14924 1.33301 6.33333C1.33301 6.51743 1.48225 6.66667 1.66634 6.66667Z" fill="#201F1E"/>
<path d="M14.147 9.52501L12.0834 8.05234L11.0167 5.92134C10.8789 5.64389 10.6661 5.41054 10.4026 5.24772C10.139 5.08489 9.83515 4.99909 9.52535 5.00001H6.47402C6.16411 4.99896 5.86009 5.08471 5.59641 5.24754C5.33272 5.41037 5.11989 5.64379 4.98202 5.92134L3.91535 8.05234L1.85502 9.52301C1.61298 9.69128 1.44118 9.94258 1.37223 10.2292C1.30328 10.5158 1.342 10.8177 1.48102 11.0777C1.62049 11.3175 1.84073 11.5 2.10235 11.5923C2.12746 11.2843 2.22339 10.9862 2.38267 10.7214C2.54196 10.4566 2.76028 10.2321 3.02061 10.0655C3.28093 9.89899 3.57623 9.79483 3.88344 9.7612C4.19066 9.72757 4.50149 9.76538 4.79169 9.87168L5.18402 10.0147L5.50835 9.78134C5.56439 9.74172 5.61672 9.6971 5.66469 9.64801V10.1883L7.42835 10.8303L7.99968 11.0393L10.08 10.2823L10.3347 10.1893V9.64934C10.3824 9.69828 10.4344 9.7429 10.49 9.78268L10.8154 10.016L11.2087 9.87268C11.4991 9.76603 11.8103 9.72807 12.1178 9.76177C12.4254 9.79548 12.7209 9.89993 12.9814 10.067C13.2418 10.234 13.46 10.459 13.6189 10.7245C13.7778 10.9899 13.8731 11.2886 13.8974 11.597C14.1712 11.4997 14.3988 11.3037 14.5357 11.0473C14.6663 10.7896 14.6989 10.4931 14.6274 10.2131C14.556 9.93313 14.3852 9.6886 14.147 9.52501Z" fill="#201F1E"/>
<path d="M4.43262 14.019C4.43384 14.2699 4.50696 14.5152 4.64331 14.7258C4.77967 14.9365 4.97354 15.1036 5.20195 15.2074C5.3617 15.2823 5.53471 15.3248 5.71098 15.3324C5.88725 15.3401 6.0633 15.3128 6.22895 15.252L7.02462 14.9624L4.43262 14.019Z" fill="#201F1E"/>
<path d="M13.1586 11.3C13.0984 11.1342 13.006 10.9818 12.8869 10.8517C12.7677 10.7216 12.6241 10.6163 12.4642 10.5417C12.3043 10.4672 12.1312 10.4249 11.955 10.4173C11.7787 10.4096 11.6027 10.4368 11.4369 10.4973L8.97461 11.3933L10.9169 12.1C11.4155 12.2814 11.822 12.653 12.0473 13.1333L12.3556 13.021C12.69 12.8988 12.9622 12.649 13.1127 12.3264C13.2633 12.0038 13.2798 11.6347 13.1586 11.3Z" fill="#201F1E"/>
<path d="M10.2296 15.3333C10.0726 15.3332 9.91695 15.3056 9.76958 15.2516L3.64358 13.0223C3.47783 12.962 3.32559 12.8696 3.19554 12.7505C3.06549 12.6313 2.96018 12.4877 2.88563 12.3278C2.81108 12.168 2.76875 11.995 2.76105 11.8188C2.75335 11.6426 2.78043 11.4666 2.84075 11.3008C2.90107 11.1351 2.99345 10.9828 3.11261 10.8528C3.23176 10.7227 3.37537 10.6174 3.53523 10.5429C3.69508 10.4683 3.86806 10.426 4.04427 10.4183C4.22049 10.4106 4.3965 10.4377 4.56225 10.498L10.6882 12.7273C10.9844 12.8358 11.233 13.045 11.3905 13.3183C11.548 13.5916 11.6043 13.9116 11.5496 14.2223C11.495 14.5329 11.3328 14.8145 11.0914 15.0176C10.8501 15.2207 10.545 15.3325 10.2296 15.3333Z" fill="#201F1E"/>
</svg>
